<svg width="15" height="15" viewBox="0 0 15 15" fill="none" xmlns="http://www.w3.org/2000/svg">
<g clip-path="url(#clip0_314_93)">
<path fill-rule="evenodd" clip-rule="evenodd" d="M14.0408 4.49719C14.0264 4.52812 14.0089 4.55781 13.9836 4.58344L5.26294 13.3037C5.22888 13.3625 5.18169 13.4137 5.1145 13.4394L0.785751 14.6519C0.776688 14.6563 0.766376 14.6569 0.756375 14.66L0.741688 14.6644C0.739188 14.6653 0.736376 14.6647 0.734188 14.6656C0.704813 14.6734 0.675751 14.68 0.644813 14.6797C0.614188 14.6806 0.585751 14.675 0.556688 14.6669C0.550126 14.665 0.544188 14.6663 0.537626 14.6641C0.535126 14.6631 0.533563 14.6609 0.531063 14.66C0.503563 14.6497 0.479813 14.6341 0.456063 14.6159C0.443876 14.6072 0.431063 14.5994 0.420751 14.5891C0.410438 14.5788 0.402626 14.5659 0.393876 14.5537C0.375751 14.5303 0.360438 14.5063 0.349813 14.4788C0.348563 14.4763 0.346688 14.4747 0.345751 14.4722C0.343563 14.4659 0.344813 14.4597 0.342938 14.4531C0.335126 14.4244 0.329501 14.3956 0.330126 14.3653C0.330126 14.3341 0.336376 14.305 0.344188 14.2756C0.345438 14.2731 0.344501 14.2706 0.345438 14.2684L0.349813 14.2531C0.353251 14.2438 0.353876 14.2334 0.357938 14.2241L1.57044 9.89531C1.59606 9.82781 1.64731 9.78156 1.70606 9.74687L10.2933 1.15938C10.3058 1.14531 10.3204 1.13344 10.3333 1.11969L10.4267 1.02625C10.4314 1.02156 10.4373 1.02 10.4423 1.01562C10.8936 0.584375 11.4992 0.3125 12.1733 0.3125C13.562 0.3125 14.6879 1.43844 14.6879 2.82719C14.6879 3.47125 14.4395 4.05281 14.0408 4.49719ZM12.8598 4.84375L11.7289 3.71281L4.34138 11.1006C4.34263 11.1031 4.34575 11.1041 4.347 11.1066L5.08856 12.615L12.8598 4.84375ZM1.11263 13.8978L1.98294 13.6544L1.35606 13.0278L1.11263 13.8978ZM1.54513 12.3531L2.657 13.4653L4.5695 12.9294C4.5695 12.9294 3.76138 11.2506 3.76013 11.25L2.08075 10.4406L1.54513 12.3531ZM3.90356 10.6637C3.90606 10.665 3.907 10.6678 3.9095 10.6694L11.2973 3.28125L10.1664 2.15031L2.39513 9.92156L3.90356 10.6637ZM12.1636 0.9375C11.6067 0.9375 11.1098 1.18 10.7607 1.56062L10.7586 1.55844L10.5979 1.71875L13.2914 4.41219L13.4561 4.24719L13.4542 4.24531C13.832 3.89656 14.0726 3.40125 14.0726 2.84656C14.0726 1.79219 13.2179 0.9375 12.1636 0.9375Z" fill="#ADADAD"/>
</g>
<defs>
<clipPath id="clip0_314_93">
<rect width="15" height="15" fill="white"/>
</clipPath>
</defs>
</svg>
