<svg width="30" height="30" viewBox="0 0 30 30" fill="none" xmlns="http://www.w3.org/2000/svg">
<path fill-rule="evenodd" clip-rule="evenodd" d="M7.15981 14.26L4.92726 16.7744C4.60225 17.1409 4.60225 17.7344 4.92726 18.1C5.2531 18.4666 5.78145 18.4656 6.10645 18.1L8.62901 15.2584C10.3774 16.3356 12.4433 17.2216 14.67 17.4034L14.6833 21.1909C14.685 21.7084 15.06 22.1266 15.52 22.1247C15.98 22.1228 16.3517 21.7009 16.35 21.1834L16.3367 17.4025C18.2376 17.2469 20.0209 16.5775 21.5885 15.715C21.5901 15.7169 21.5918 15.7187 21.5943 15.7206L24.5385 19.0375C24.8644 19.4031 25.3919 19.4041 25.7177 19.0375C26.0427 18.6719 26.0427 18.0784 25.7177 17.7119L23.1127 14.7775C25.9586 12.8434 27.7878 10.5625 27.7878 10.5625C28.0945 10.1772 28.0653 9.58468 27.7228 9.23874C27.3803 8.89374 26.8536 8.92656 26.5461 9.31187C26.5461 9.31187 21.6043 15.5622 15.5 15.5622C9.3957 15.5622 4.45392 9.31187 4.45392 9.31187C4.14641 8.92656 3.61973 8.89374 3.27722 9.23874C2.93472 9.58468 2.90555 10.1772 3.21222 10.5625C3.21222 10.5625 4.73392 12.46 7.15981 14.26Z" fill="black"/>
</svg>
