<svg width="25" height="25" viewBox="0 0 25 25" fill="none" xmlns="http://www.w3.org/2000/svg">
<path d="M21.0941 22.6563V13.2813H22.4715C23.3613 13.2813 23.7762 12.1719 23.1059 11.5875L13.9598 2.9258C13.5656 2.55215 13.0431 2.34387 12.5 2.34387C11.9569 2.34387 11.4344 2.55215 11.0402 2.9258L1.89335 11.5875C1.22382 12.1727 1.63866 13.2813 2.52772 13.2813H3.90663V22.6563" stroke="#FF8F32" stroke-width="2" stroke-miterlimit="10" stroke-linecap="round" stroke-linejoin="round"/>
<path d="M3.90625 22.6562H9.375V17.9688C9.375 17.1399 9.70424 16.3451 10.2903 15.759C10.8763 15.173 11.6712 14.8437 12.5 14.8438C13.3288 14.8438 14.1237 15.173 14.7097 15.759C15.2958 16.3451 15.625 17.1399 15.625 17.9688V22.6562H21.0938" stroke="#FF8F32" stroke-width="2" stroke-miterlimit="10" stroke-linecap="round" stroke-linejoin="round"/>
</svg>
