<svg width="25" height="25" viewBox="0 0 25 25" fill="none" xmlns="http://www.w3.org/2000/svg">
<g clip-path="url(#clip0_254_612)">
<path d="M4.6875 9.375H10.1562M14.8438 9.375H20.3125M10.1562 14.0625C10.1562 14.6841 10.4032 15.2802 10.8427 15.7198C11.2823 16.1593 11.8784 16.4062 12.5 16.4062C13.1216 16.4062 13.7177 16.1593 14.1573 15.7198C14.5968 15.2802 14.8437 14.6841 14.8438 14.0625V5.46875C14.8438 5.26155 14.9261 5.06284 15.0726 4.91632C15.2191 4.76981 15.4178 4.6875 15.625 4.6875H19.5312C19.7385 4.6875 19.9372 4.76981 20.0837 4.91632C20.2302 5.06284 20.3125 5.26155 20.3125 5.46875V13.9648C20.3125 18.2715 16.8652 21.8457 12.5586 21.875C11.5277 21.8827 10.5055 21.6864 9.55088 21.2972C8.59625 20.9081 7.72808 20.3338 6.99641 19.6076C6.26473 18.8814 5.68402 18.0175 5.28775 17.0658C4.89147 16.1141 4.68747 15.0934 4.6875 14.0625V5.46875C4.6875 5.26155 4.76981 5.06284 4.91632 4.91632C5.06284 4.76981 5.26155 4.6875 5.46875 4.6875H9.375C9.5822 4.6875 9.78091 4.76981 9.92743 4.91632C10.0739 5.06284 10.1562 5.26155 10.1562 5.46875V14.0625Z" stroke="#8E99A8" stroke-width="2" stroke-linecap="round" stroke-linejoin="round"/>
</g>
<defs>
<clipPath id="clip0_254_612">
<rect width="25" height="25" fill="white"/>
</clipPath>
</defs>
</svg>
