<svg width="25" height="25" viewBox="0 0 25 25" fill="none" xmlns="http://www.w3.org/2000/svg">
<g clip-path="url(#clip0_254_615)">
<path d="M19.5313 3.90625H15.625C15.2106 3.90625 14.8132 4.07087 14.5202 4.3639C14.2271 4.65692 14.0625 5.05435 14.0625 5.46875V14.0625C14.0625 14.4769 13.8979 14.8743 13.6049 15.1674C13.3118 15.4604 12.9144 15.625 12.5 15.625C12.0856 15.625 11.6882 15.4604 11.3952 15.1674C11.1021 14.8743 10.9375 14.4769 10.9375 14.0625V5.46875C10.9375 5.05435 10.7729 4.65692 10.4799 4.3639C10.1868 4.07087 9.78941 3.90625 9.37501 3.90625H5.46876C5.05435 3.90625 4.65693 4.07087 4.3639 4.3639C4.07088 4.65692 3.90626 5.05435 3.90626 5.46875V14.0625C3.90497 15.1914 4.12638 16.3095 4.5578 17.3527C4.98922 18.3959 5.62218 19.3438 6.42044 20.1421C7.2187 20.9403 8.16658 21.5733 9.2098 22.0047C10.253 22.4361 11.3711 22.6575 12.5 22.6562H12.5684C17.2656 22.6172 21.0938 18.7207 21.0938 13.9648V5.46875C21.0938 5.05435 20.9291 4.65692 20.6361 4.3639C20.3431 4.07087 19.9457 3.90625 19.5313 3.90625ZM19.5313 5.46875V9.375H15.625V5.46875H19.5313ZM9.37501 5.46875V9.375H5.46876V5.46875H9.37501Z" fill="#FF8F32"/>
</g>
<defs>
<clipPath id="clip0_254_615">
<rect width="25" height="25" fill="white"/>
</clipPath>
</defs>
</svg>
