<svg width="25" height="25" viewBox="0 0 25 25" fill="none" xmlns="http://www.w3.org/2000/svg">
<path d="M20.0498 7.81671C20.8101 7.81671 21.5392 7.51468 22.0768 6.97708C22.6144 6.43948 22.9165 5.71033 22.9165 4.95004C22.9165 4.18975 22.6144 3.46061 22.0768 2.923C21.5392 2.3854 20.8101 2.08337 20.0498 2.08337H4.94772C4.18743 2.08337 3.45829 2.3854 2.92068 2.923C2.38308 3.46061 2.08105 4.18975 2.08105 4.95004C2.08105 5.71033 2.38308 6.43948 2.92068 6.97708C3.45829 7.51468 4.18743 7.81671 4.94772 7.81671H20.0498ZM17.9665 15.1084C18.7268 15.1084 19.4559 14.8064 19.9935 14.2687C20.5311 13.7311 20.8331 13.002 20.8331 12.2417C20.8331 11.4814 20.5311 10.7523 19.9935 10.2147C19.4559 9.67706 18.7268 9.37504 17.9665 9.37504H7.03105C6.27077 9.37504 5.54162 9.67706 5.00402 10.2147C4.46641 10.7523 4.16439 11.4814 4.16439 12.2417C4.16439 13.002 4.46641 13.7311 5.00402 14.2687C5.54162 14.8064 6.27077 15.1084 7.03105 15.1084H17.9665ZM17.7081 19.5334C17.7081 18.7731 17.4061 18.0439 16.8685 17.5063C16.3309 16.9687 15.6018 16.6667 14.8415 16.6667H10.1561C9.39577 16.6667 8.66662 16.9687 8.12901 17.5063C7.59141 18.0439 7.28939 18.7731 7.28939 19.5334C7.28939 20.2937 7.59141 21.0228 8.12901 21.5604C8.66662 22.098 9.39577 22.4 10.1561 22.4H14.8415C15.6018 22.4 16.3309 22.098 16.8685 21.5604C17.4061 21.0228 17.7081 20.2937 17.7081 19.5334Z" fill="#FF8F32"/>
</svg>
