<svg width="40" height="23" viewBox="0 0 40 23" fill="none" xmlns="http://www.w3.org/2000/svg">
<g clip-path="url(#clip0_310_52)">
<path d="M12.7197 7.13643C12.7197 3.22454 15.9673 0.0527344 19.9727 0.0527344C23.9782 0.0527344 27.2258 3.22454 27.2258 7.13643C27.2258 11.0483 23.9782 14.2201 19.9727 14.2201C15.9673 14.2201 12.7197 11.0483 12.7197 7.13643Z" fill="#FF8F32"/>
<path d="M40 16.8638H0V22.203H40V16.8638Z" fill="#FF8F32"/>
<path d="M2.70636 0C1.7862 0 0.866036 0.15859 0 0.52863V13.6917C3.73478 15.1719 7.95671 13.3745 9.47227 9.72685C10.9878 6.07929 9.14751 1.95594 5.41273 0.52863C4.54669 0.21145 3.62653 0 2.70636 0Z" fill="#FF8F32"/>
<path d="M37.2359 0C38.1561 0 39.0763 0.15859 39.9423 0.52863V13.6917C36.2075 15.1719 31.9856 13.4273 30.47 9.77975C28.9545 6.13216 30.7406 2.00881 34.4755 0.52863C35.3956 0.21145 36.3158 0 37.2359 0Z" fill="#FF8F32"/>
</g>
<defs>
<clipPath id="clip0_310_52">
<rect width="40" height="22.203" fill="white"/>
</clipPath>
</defs>
</svg>
